<svg width="30" height="35" viewBox="0 0 30 35" fill="none" xmlns="http://www.w3.org/2000/svg">
<path d="M26.4706 14.7632V24.3158L30 27.7895V29.5263H0V27.7895L3.52941 24.3158V14.7632C3.52941 9.43105 7.28824 4.96737 12.3529 3.78631V2.60526C12.3529 1.9143 12.6318 1.25165 13.1282 0.763064C13.6247 0.274482 14.298 0 15 0C15.702 0 16.3753 0.274482 16.8718 0.763064C17.3682 1.25165 17.6471 1.9143 17.6471 2.60526V3.78631C22.6941 4.96737 26.4706 9.43105 26.4706 14.7632Z" fill="#D9D9D9"/>
<path d="M17.4957 33.7194C16.8338 34.3709 15.9361 34.7368 15 34.7368C14.0639 34.7368 13.1662 34.3709 12.5043 33.7194C11.8424 33.068 11.4706 32.1844 11.4706 31.2632H18.5294C18.5294 32.1844 18.1576 33.068 17.4957 33.7194Z" fill="#D9D9D9"/>
</svg>
