<svg width="44" height="31" viewBox="0 0 44 31" fill="none" xmlns="http://www.w3.org/2000/svg">
<path d="M34.5 18.4967V12.1855H28V9.27262H34.5V2.96141H37.5V9.27262H44V12.1855H37.5V18.4967H34.5ZM16 14.5643C13.8 14.5643 12 13.8847 10.6 12.5253C9.2 11.166 8.5 9.41826 8.5 7.28216C8.5 5.14606 9.2 3.39834 10.6 2.03901C12 0.679669 13.8 0 16 0C18.2 0 20 0.679669 21.4 2.03901C22.8 3.39834 23.5 5.14606 23.5 7.28216C23.5 9.41826 22.8 11.166 21.4 12.5253C20 13.8847 18.2 14.5643 16 14.5643ZM0 30.1481V25.5847C0 24.4519 0.3 23.4243 0.9 22.5019C1.5 21.5795 2.33333 20.8917 3.4 20.4386C5.9 19.3705 8.125 18.6181 10.075 18.1811C12.025 17.7442 14 17.5257 16 17.5257C18 17.5257 19.975 17.7442 21.925 18.1811C23.875 18.6181 26.0833 19.3705 28.55 20.4386C29.6167 20.9241 30.4583 21.6199 31.075 22.5262C31.6917 23.4324 32 24.4519 32 25.5847V30.1481H0Z" fill="#D9D9D9"/>
</svg>
